# xmcd
#
# Track frame offsets: 
#        150
#        13797
#        30107
#        50593
#        73907
#        101178
#        141447
#        160316
#        187387
#        209383
#        239226
#        262263
#
# Disc length: 4066 seconds
#
# Revision: 4
# Processed by: cddbd v1.5.2PL0 Copyright (c) Steve Scherf et al.
# Submitted via: ExactAudioCopyFreeDBPlugin 1.0
#
DISCID=c30fe00c
DTITLE=Ana Popovic - ANA! - Live in Amsterdam
DYEAR=2005
DGENRE=Blues
TTITLE0=Intro
TTITLE1=Don't Bear Down On Me
TTITLE2=Sittin' On Top Of The World
TTITLE3=Love Me Again
TTITLE4=Comfort To The Soul
TTITLE5=Navajo Moon
TTITLE6=Night By Night
TTITLE7=Bigtown Playboy
TTITLE8=Won't Let You Down
TTITLE9=Jaco
TTITLE10=Long Way Home
TTITLE11=My Man
EXTD=YEAR: 2005
EXTT0=
EXTT1=
EXTT2=
EXTT3=
EXTT4=
EXTT5=
EXTT6=
EXTT7=
EXTT8=
EXTT9=
EXTT10=
EXTT11=
PLAYORDER=
